<svg width="17" height="15" viewBox="0 0 17 15" fill="none" xmlns="http://www.w3.org/2000/svg">
<path d="M4.42872 4.90299L5.18838 5.15641H5.32519L5.47812 4.39118C5.49921 4.2863 5.53085 4.16912 5.57216 4.04578L4.97773 2.85693L5.67499 0.765461C5.75673 0.519958 5.62431 0.254532 5.37851 0.172502L4.93408 0.0242623C4.68858 -0.0577677 4.42286 0.074945 4.34112 0.320742L3.58264 2.59649C3.50409 2.83236 3.52232 3.08975 3.63332 3.3122L4.42872 4.90299ZM16.7959 10.2358L15.2505 7.91789C15.1649 7.7895 15.049 7.68422 14.9129 7.61139C14.7769 7.53857 14.625 7.50045 14.4706 7.50041H12.1873L14.2084 6.78675C14.4062 6.72077 14.5764 6.59079 14.6921 6.41732L16.2624 4.0616C16.406 3.84627 16.3477 3.55507 16.1323 3.41151L15.7424 3.15136C15.5271 3.00781 15.2359 3.06611 15.0923 3.28144L13.6111 5.50298L11.8387 6.09389H10.7811L10.4773 4.57487C10.4131 4.25349 9.96838 2.81269 8.43735 2.81269C6.90632 2.81269 6.4616 4.25349 6.39744 4.57487L6.09363 6.09389H5.03603L3.26389 5.50298L1.78238 3.28144C1.63882 3.06611 1.34791 3.00781 1.13229 3.15136L0.742353 3.41151C0.527024 3.55507 0.468725 3.84598 0.612277 4.0616L2.18256 6.41732C2.29827 6.59079 2.46845 6.72077 2.66625 6.78675L4.68741 7.50012H2.40405C2.2497 7.50015 2.09774 7.53827 1.96165 7.61109C1.82556 7.68392 1.70954 7.78919 1.62388 7.91759L0.0787894 10.2358C-0.064763 10.4511 -0.00675613 10.7424 0.208865 10.8859L0.598801 11.1461C0.814129 11.2896 1.10534 11.2313 1.24889 11.016L2.65512 8.90664H4.0338L2.2517 11.7581C2.15861 11.9071 2.10927 12.0792 2.10932 12.2549V14.5313C2.10932 14.7902 2.31909 15 2.57807 15H3.04681C3.30579 15 3.51555 14.7902 3.51555 14.5313V12.3894L5.68583 8.91689C5.65624 9.32851 5.62489 9.74042 5.62489 10.1535C5.62489 11.7083 6.81901 13.125 8.43735 13.125C10.0557 13.125 11.2498 11.7083 11.2498 10.1535C11.2498 9.74042 11.2182 9.32851 11.1889 8.91689L13.3591 12.3894V14.5313C13.3591 14.7902 13.5689 15 13.8279 15H14.2966C14.5556 15 14.7654 14.7902 14.7654 14.5313V12.2546C14.7654 12.0789 14.7159 11.9066 14.623 11.7578L12.8409 8.90635H14.2196L15.6258 11.0157C15.7694 11.231 16.0606 11.2893 16.2759 11.1458L16.6658 10.8856C16.8815 10.7421 16.9395 10.4511 16.7959 10.2358ZM11.897 2.85693L11.3025 4.04578C11.3438 4.16912 11.3755 4.2863 11.3966 4.39118L11.5495 5.15641H11.6863L12.446 4.90299L13.2414 3.3122C13.2964 3.20207 13.3292 3.08219 13.3379 2.95938C13.3466 2.83658 13.331 2.71327 13.2921 2.59649L12.5336 0.320742C12.4518 0.075238 12.1861 -0.0577677 11.9406 0.0242623L11.4962 0.172502C11.2507 0.254532 11.118 0.519958 11.1997 0.765461L11.897 2.85693Z" fill="black"/>
</svg>
