<svg width="16" height="15" viewBox="0 0 16 15" fill="none" xmlns="http://www.w3.org/2000/svg">
<path d="M8.43842 4.89729V4.07401C7.6122 3.01048 7.05846 1.75064 6.85338 0.405848C6.79185 0.0103197 6.29671 -0.144962 6.03888 0.162671C5.42068 0.892201 4.93433 1.74771 4.60619 2.69698C5.60819 3.81911 6.95006 4.58966 8.43842 4.89729ZM11.7198 1.8737C10.4249 1.8737 9.37597 2.92551 9.37597 4.2205V5.96082C6.31722 5.77917 3.72138 3.89529 2.54944 1.22327C2.3883 0.857043 1.86972 0.836535 1.69979 1.1969C1.21343 2.22528 0.93803 3.37378 0.93803 4.58673C0.93803 6.66106 1.93711 8.59768 3.43132 10.0333C3.81806 10.4054 4.19601 10.713 4.57103 10.9943L0.354992 12.049C0.0414989 12.1281 -0.0991334 12.4914 0.076657 12.7639C0.586449 13.552 1.84628 14.888 4.56517 14.9994C4.79956 15.0082 5.03395 14.9232 5.21267 14.7679L7.12292 13.1243H9.37597C11.9659 13.1243 14.0637 11.0294 14.0637 8.43947V3.7488L15.0013 1.8737H11.7198ZM11.7198 4.68927C11.462 4.68927 11.2511 4.47833 11.2511 4.2205C11.2511 3.96267 11.462 3.75173 11.7198 3.75173C11.9777 3.75173 12.1886 3.96267 12.1886 4.2205C12.1886 4.47833 11.9777 4.68927 11.7198 4.68927Z" fill="black"/>
</svg>
