<svg width="14" height="15" viewBox="0 0 14 15" fill="none" xmlns="http://www.w3.org/2000/svg">
<path d="M6.93642 0C3.10544 0 0 3.35776 0 7.5C0 11.6422 3.10544 15 6.93642 15C10.7674 15 13.8728 11.6422 13.8728 7.5C13.8728 3.35776 10.7674 0 6.93642 0ZM9.23802 10.8145C9.12894 10.9319 9.01454 11.0549 8.92169 11.1556C8.83806 11.2464 8.77904 11.3583 8.74911 11.4795C8.70688 11.6507 8.67276 11.8237 8.6157 11.9897L8.12931 13.4066C7.74445 13.4973 7.34617 13.5484 6.93642 13.5484V12.7204C6.98368 12.3387 6.72273 11.6238 6.30347 11.1705C6.13565 10.989 6.04139 10.7428 6.04139 10.4861V9.51804C6.04139 9.16603 5.86603 8.84244 5.58102 8.67218C5.1791 8.43175 4.6074 8.09577 4.21583 7.88256C3.89474 7.70776 3.59771 7.48518 3.3306 7.2248L3.30822 7.20302C3.11721 7.01659 2.94762 6.80601 2.8031 6.57581C2.54074 6.15937 2.11337 5.4744 1.83563 5.02923C2.40817 3.65323 3.43996 2.54819 4.72208 1.94788L5.39362 2.31109C5.69122 2.47198 6.04139 2.23821 6.04139 1.87833V1.53659C6.26487 1.49758 6.49226 1.47278 6.72357 1.46341L7.5151 2.31925C7.68991 2.50827 7.68991 2.81462 7.5151 3.00363L7.38393 3.14516L7.09472 3.45786C7.00746 3.55222 7.00746 3.70554 7.09472 3.7999L7.2259 3.94173C7.31316 4.03609 7.31316 4.18942 7.2259 4.28377L7.00214 4.52571C6.96013 4.57104 6.90319 4.5965 6.84384 4.59647H6.59239C6.53422 4.59647 6.47828 4.62097 6.43632 4.66512L6.15887 4.95696C6.12486 4.99277 6.10225 5.03933 6.0943 5.08994C6.08636 5.14054 6.09349 5.19257 6.11467 5.23851L6.55072 6.18175C6.62512 6.34264 6.51687 6.53196 6.35074 6.53196H6.19299C6.13901 6.53196 6.08698 6.51079 6.04643 6.47268L5.78687 6.22893C5.72814 6.17384 5.65715 6.13622 5.58089 6.11978C5.50464 6.10335 5.42573 6.10865 5.35195 6.13518L4.48014 6.44939C4.41358 6.47339 4.3557 6.51943 4.31468 6.58098C4.27367 6.64253 4.25161 6.71648 4.25163 6.79234C4.25163 6.92933 4.32323 7.05423 4.43651 7.11562L4.74641 7.28317C5.0096 7.4256 5.29993 7.4997 5.59416 7.4997C5.8884 7.4997 6.22599 8.325 6.48918 8.46744H8.35614C8.5936 8.46744 8.821 8.56935 8.98909 8.75081L9.37199 9.16482C9.53196 9.33784 9.6218 9.57249 9.62176 9.81714C9.6217 10.0025 9.58777 10.1861 9.52192 10.3572C9.45606 10.5284 9.35958 10.6838 9.23802 10.8145ZM11.6632 8.05192C11.5013 8.00806 11.3601 7.90071 11.2675 7.7504L10.7646 6.93478C10.691 6.81561 10.6517 6.67554 10.6517 6.53226C10.6517 6.38897 10.691 6.2489 10.7646 6.12974L11.3125 5.24123C11.3774 5.13629 11.4663 5.05101 11.5709 4.99476L11.934 4.79849C12.3121 5.6126 12.5303 6.52833 12.5303 7.5C12.5303 7.7622 12.5096 8.01895 12.4794 8.27238L11.6632 8.05192Z" fill="black"/>
</svg>
