<svg width="14" height="15" viewBox="0 0 14 15" fill="none" xmlns="http://www.w3.org/2000/svg">
<path d="M12.8656 13.2731L8.70611 11.2499L12.8659 9.22664C13.0974 9.11092 13.1914 8.82938 13.0754 8.59793L12.6562 7.75918C12.5404 7.52773 12.2589 7.43369 12.0272 7.54941L6.56248 10.2072L1.09781 7.54941C0.866365 7.43369 0.584826 7.52744 0.468812 7.75918L0.049579 8.59793C-0.0661422 8.82938 0.0276066 9.11092 0.259049 9.22664L4.41886 11.2499L0.259342 13.2731C0.0278996 13.3888 -0.0661422 13.6703 0.0498719 13.9021L0.469105 14.7408C0.584826 14.9723 0.866365 15.0663 1.0981 14.9503L6.56248 12.2925L12.0272 14.9503C12.2586 15.066 12.5401 14.9723 12.6562 14.7408L13.0754 13.9021C13.1911 13.6703 13.0971 13.3888 12.8656 13.2731ZM4.39454 6.95147L4.234 7.70937C4.15578 8.07909 4.39278 8.43739 4.71592 8.43739H8.40963C8.73277 8.43739 8.96977 8.07909 8.89155 7.70937L8.73042 6.95147C9.95443 6.29494 10.7812 5.11312 10.7812 3.74995C10.7812 1.67898 8.89243 0 6.56248 0C4.23253 0 2.34379 1.67898 2.34379 3.74995C2.34379 5.11312 3.17053 6.29494 4.39454 6.95147ZM8.20309 3.28121C8.72017 3.28121 9.14057 3.70161 9.14057 4.21869C9.14057 4.73578 8.72017 5.15618 8.20309 5.15618C7.686 5.15618 7.2656 4.73578 7.2656 4.21869C7.2656 3.70161 7.686 3.28121 8.20309 3.28121ZM4.92188 3.28121C5.43896 3.28121 5.85937 3.70161 5.85937 4.21869C5.85937 4.73578 5.43896 5.15618 4.92188 5.15618C4.4048 5.15618 3.98439 4.73578 3.98439 4.21869C3.98439 3.70161 4.4048 3.28121 4.92188 3.28121Z" fill="black"/>
</svg>
