<svg width="18" height="15" viewBox="0 0 18 15" fill="none" xmlns="http://www.w3.org/2000/svg">
<path d="M17.2035 13.5557L9.40001 0.430664C9.24042 0.162305 8.96567 0 8.6706 0C8.37554 0 8.10079 0.162305 7.9412 0.430664L0.13773 13.5557C0.0535183 13.6973 0.00613489 13.8608 0.000556637 14.0291C-0.00502161 14.1973 0.0314112 14.3641 0.106028 14.5119C0.18068 14.6597 0.290746 14.7829 0.424669 14.8688C0.558592 14.9547 0.711431 15 0.867137 15H16.4741C16.7914 15 17.0832 14.8128 17.2352 14.5116C17.3098 14.3639 17.3462 14.1972 17.3407 14.0289C17.3351 13.8607 17.2877 13.6972 17.2035 13.5557ZM8.6706 2.67129L10.9843 6.5625H8.6706L6.9365 8.4375L5.90525 7.32246L8.6706 2.67129Z" fill="black"/>
</svg>
