<svg width="10" height="15" viewBox="0 0 10 15" fill="none" xmlns="http://www.w3.org/2000/svg">
<path d="M5.56051 0.647178C5.34537 -0.195985 4.22091 -0.235243 3.97706 0.647178C2.70981 5.26905 0 6.52501 0 9.78252C0 12.6665 2.13295 15 4.76878 15C7.40462 15 9.53756 12.6665 9.53756 9.78252C9.53756 6.5086 6.83372 5.29014 5.56051 0.647178ZM4.76878 13.125C3.09564 13.125 1.7341 11.6528 1.7341 9.84375C1.7341 9.58477 1.92811 9.375 2.16763 9.375C2.40715 9.375 2.60115 9.58477 2.60115 9.84375C2.60115 11.136 3.57361 12.1875 4.76878 12.1875C5.00831 12.1875 5.20231 12.3973 5.20231 12.6563C5.20231 12.9152 5.00831 13.125 4.76878 13.125Z" fill="black"/>
</svg>
